<svg xmlns="http://www.w3.org/2000/svg" width="25.176" height="22.035" viewBox="0 0 25.176 22.035"><defs><style>.a{fill:#001648;stroke:#001648;stroke-width:0.1px;}</style></defs><g transform="translate(0.05 -32.015)"><path class="a" d="M23.531,128.258H1.545A1.547,1.547,0,0,0,0,129.8v9.423a1.547,1.547,0,0,0,1.545,1.545H23.531a1.547,1.547,0,0,0,1.545-1.545V129.8a1.547,1.547,0,0,0-1.545-1.545Zm-.76.735v11.044H2.305V128.993ZM.735,139.226V129.8a.811.811,0,0,1,.81-.811H1.57v11.044H1.545a.811.811,0,0,1-.81-.811Zm23.607,0a.811.811,0,0,1-.81.811h-.025V128.993h.025a.811.811,0,0,1,.81.811Z" transform="translate(0 -91.482)"/><path class="a" d="M104.577,35.94a.367.367,0,0,0,.367-.367V32.825a.025.025,0,0,1,.025-.025h13.349a.025.025,0,0,1,.025.025v2.748a.367.367,0,1,0,.735,0V32.825a.761.761,0,0,0-.76-.76H104.97a.761.761,0,0,0-.76.76v2.748A.367.367,0,0,0,104.577,35.94Z" transform="translate(-99.106)"/><path class="a" d="M118.711,400.807a.367.367,0,0,0-.367.367v2.748a.025.025,0,0,1-.025.025H104.97a.025.025,0,0,1-.025-.025v-2.748a.367.367,0,0,0-.735,0v2.748a.761.761,0,0,0,.76.76h13.349a.761.761,0,0,0,.76-.76v-2.748A.367.367,0,0,0,118.711,400.807Z" transform="translate(-99.106 -350.682)"/><path class="a" d="M160.69,64.864h6.674a.367.367,0,0,0,0-.735H160.69a.367.367,0,0,0,0,.735Z" transform="translate(-152.471 -29.494)"/><path class="a" d="M169.328,400.807H160.69a.367.367,0,0,0,0,.735h8.637a.367.367,0,1,0,0-.735Z" transform="translate(-152.471 -349.682)"/><path class="a" d="M104.576,163.02a.367.367,0,0,0,.367-.367v-1.6h1.6a.367.367,0,1,0,0-.735h-1.963a.367.367,0,0,0-.367.367v1.963A.367.367,0,0,0,104.576,163.02Z" transform="translate(-99.105 -121.975)"/><path class="a" d="M104.576,299.295h1.963a.367.367,0,1,0,0-.735h-1.6v-1.6a.367.367,0,0,0-.735,0v1.963A.367.367,0,0,0,104.576,299.295Z" transform="translate(-99.105 -251.576)"/><path class="a" d="M353.076,299.295h1.963a.367.367,0,0,0,.367-.367v-1.963a.367.367,0,0,0-.735,0v1.6h-1.6a.367.367,0,1,0,0,.735Z" transform="translate(-335.434 -251.576)"/><path class="a" d="M353.076,161.057h1.6v1.6a.367.367,0,1,0,.735,0v-1.963a.367.367,0,0,0-.367-.367h-1.963a.367.367,0,1,0,0,.735Z" transform="translate(-335.434 -121.975)"/><path class="a" d="M195.091,186.778a.367.367,0,0,0,.474-.213l.532-1.4h3.508l.527,1.4a.367.367,0,0,0,.687-.259l-2.476-6.562,0-.01a.516.516,0,0,0-.479-.321h0a.516.516,0,0,0-.479.322l0,.008-2.5,6.562A.367.367,0,0,0,195.091,186.778Zm2.769-6.237,1.469,3.892h-2.951Z" transform="translate(-185.311 -140.13)"/></g></svg>