<svg xmlns="http://www.w3.org/2000/svg" width="34" height="34" viewBox="0 0 34 34"><defs><style>.a{fill:#fff;stroke:rgba(29,30,74,0.45);}.b{fill:#1d1e4a;}.c{stroke:none;}.d{fill:none;}</style></defs><g class="a"><circle class="c" cx="17" cy="17" r="17"/><circle class="d" cx="17" cy="17" r="16.5"/></g><g transform="translate(10.891 9.532)"><g transform="translate(0)"><path class="b" d="M140.193,7.889h.1a2.8,2.8,0,0,0,2.137-.925,5.546,5.546,0,0,0,.952-3.787,3.093,3.093,0,0,0-1.47-2.75A3.371,3.371,0,0,0,140.278,0h-.052A3.376,3.376,0,0,0,138.6.415a3.1,3.1,0,0,0-1.489,2.762,5.546,5.546,0,0,0,.952,3.787A2.786,2.786,0,0,0,140.193,7.889Zm-2.277-4.636c0-.009,0-.018,0-.024a2.205,2.205,0,0,1,2.3-2.407h.036a2.216,2.216,0,0,1,2.3,2.407.059.059,0,0,0,0,.024,4.8,4.8,0,0,1-.749,3.168,1.987,1.987,0,0,1-1.561.649h-.03a1.981,1.981,0,0,1-1.558-.649A4.826,4.826,0,0,1,137.916,3.253Z" transform="translate(-134.019)"/><path class="b" d="M48.525,263.014v-.009c0-.024,0-.048,0-.076a2.378,2.378,0,0,0-1.373-2.453l-.03-.009a8.748,8.748,0,0,1-2.516-1.146.409.409,0,0,0-.47.67,9.44,9.44,0,0,0,2.768,1.264c.706.252.785,1.007.806,1.7a.609.609,0,0,0,0,.076,5.5,5.5,0,0,1-.064.937,11.157,11.157,0,0,1-5.345,1.243,11.221,11.221,0,0,1-5.348-1.246,5.21,5.21,0,0,1-.064-.937c0-.024,0-.049,0-.076.021-.691.1-1.446.806-1.7a9.531,9.531,0,0,0,2.768-1.264.409.409,0,1,0-.47-.67,8.653,8.653,0,0,1-2.516,1.146l-.03.009a2.382,2.382,0,0,0-1.373,2.453.609.609,0,0,1,0,.076v.009a4.649,4.649,0,0,0,.155,1.373.389.389,0,0,0,.158.191,11.468,11.468,0,0,0,5.918,1.449,11.5,11.5,0,0,0,5.918-1.449.406.406,0,0,0,.158-.191A4.878,4.878,0,0,0,48.525,263.014Z" transform="translate(-36.073 -251.385)"/></g></g></svg>